<?xml version="1.0" encoding="utf-8"?>
<!-- Generator: Adobe Illustrator 15.1.0, SVG Export Plug-In . SVG Version: 6.00 Build 0)  -->
<!DOCTYPE svg PUBLIC "-//W3C//DTD SVG 1.1//EN" "http://www.w3.org/Graphics/SVG/1.1/DTD/svg11.dtd">
<svg version="1.1" id="Capa_1" xmlns="http://www.w3.org/2000/svg" xmlns:xlink="http://www.w3.org/1999/xlink" x="0px" y="0px"
	 width="44px" height="76.291px" viewBox="0 0 44 76.291" enable-background="new 0 0 44 76.291" xml:space="preserve">
<g>
	<path fill="#FFFFFF" d="M6.173,58.741v1.188H2.73v-1.188h0.815v-5.829H2.73v-1.187h3.49c1.295,0,2.146,0.144,2.687,0.61
		c0.443,0.384,0.672,0.983,0.672,1.883c0,1.583-0.612,2.724-2.734,2.724c-0.468,0-1.164-0.084-1.5-0.156v1.955H6.173z M5.345,55.694
		h1.044c0.504,0,0.804-0.084,1.02-0.287c0.228-0.24,0.348-0.611,0.348-1.163c0-0.468-0.096-0.815-0.324-1.031
		c-0.216-0.204-0.575-0.301-1.151-0.301H5.345V55.694z"/>
	<path fill="#FFFFFF" d="M13.637,59.593c-0.456,0.324-1.092,0.504-1.644,0.504c-0.6,0-1.151-0.18-1.476-0.504
		c-0.359-0.336-0.563-0.826-0.563-1.427c0-0.528,0.156-1.008,0.492-1.332c0.42-0.396,1.079-0.539,2.158-0.539h0.948v-0.36
		c0-0.274-0.049-0.455-0.181-0.574c-0.168-0.146-0.407-0.192-0.852-0.192H10.6v-1.056c0.588-0.119,1.512-0.229,2.231-0.229
		c0.755,0,1.451,0.145,1.858,0.516c0.36,0.336,0.528,0.781,0.528,1.549v2.865h0.743v1.057c-0.456,0.061-1.104,0.107-1.427,0.107
		C14.021,59.978,13.756,59.856,13.637,59.593z M13.553,57.397h-0.972c-0.384,0-0.624,0.061-0.779,0.191
		c-0.12,0.108-0.192,0.288-0.192,0.504c0,0.443,0.228,0.708,0.863,0.708c0.336,0,0.792-0.061,1.08-0.145V57.397z"/>
	<path fill="#FFFFFF" d="M18.077,58.082c0,0,0.145,0.384,0.181,0.743c0.312,0.048,0.659,0.072,1.007,0.072
		c0.804,0,1.14-0.168,1.14-0.601c0-0.336-0.204-0.456-0.731-0.54l-0.972-0.156c-0.768-0.119-1.199-0.312-1.476-0.586
		c-0.287-0.289-0.419-0.697-0.419-1.199c0-0.588,0.203-1.008,0.527-1.319c0.468-0.444,1.26-0.612,2.135-0.612
		c0.684,0,1.476,0.108,1.907,0.217c0.228,0.061,0.264,0.168,0.264,0.336v1.476h-1.151c-0.096-0.204-0.168-0.576-0.192-0.792
		c-0.251-0.023-0.611-0.036-0.923-0.036c-0.684,0-0.996,0.168-0.996,0.563c0,0.336,0.168,0.492,0.792,0.588l0.924,0.145
		c0.779,0.12,1.175,0.301,1.463,0.588c0.275,0.287,0.42,0.684,0.42,1.199c0,1.223-0.936,1.932-2.675,1.932
		c-0.995,0-1.775-0.084-2.146-0.205c-0.229-0.071-0.24-0.203-0.24-0.384v-1.427L18.077,58.082L18.077,58.082z"/>
	<path fill="#FFFFFF" d="M26.621,59.593c-0.456,0.324-1.092,0.504-1.645,0.504c-0.6,0-1.15-0.18-1.476-0.504
		c-0.358-0.336-0.563-0.826-0.563-1.427c0-0.528,0.156-1.008,0.492-1.332c0.42-0.396,1.079-0.539,2.158-0.539h0.948v-0.36
		c0-0.274-0.05-0.455-0.181-0.574c-0.168-0.146-0.407-0.192-0.853-0.192h-1.919v-1.056c0.588-0.119,1.512-0.229,2.23-0.229
		c0.756,0,1.451,0.145,1.858,0.516c0.36,0.336,0.528,0.781,0.528,1.549v2.865h0.742v1.057c-0.455,0.061-1.104,0.107-1.426,0.107
		C27.005,59.978,26.74,59.856,26.621,59.593z M26.537,57.397h-0.973c-0.383,0-0.623,0.061-0.778,0.191
		c-0.12,0.108-0.192,0.288-0.192,0.504c0,0.443,0.229,0.708,0.863,0.708c0.336,0,0.792-0.061,1.08-0.145V57.397z"/>
	<path fill="#FFFFFF" d="M33.389,53.884c0.239,0,0.323,0.024,0.323,0.168v1.319h-0.636c-0.456,0-0.792,0.036-1.188,0.132v4.426
		h-1.668v-4.762h-0.828v-1.043c0.457-0.072,1.08-0.12,1.487-0.12c0.588,0,0.876,0.132,0.972,0.527
		C32.32,54.136,32.836,53.884,33.389,53.884z"/>
</g>
<g>
	<path fill="#FFFFFF" d="M6.58,66.88c1.535,0,2.123,1.319,2.123,3.059c0,2.314-0.947,3.154-2.267,3.154
		c-0.527,0-1.14-0.203-1.583-0.479v3.01H3.187v-7.46H2.358v-1.056C2.814,67.048,3.45,67,3.857,67c0.588,0,0.864,0.144,0.972,0.479
		C5.357,67.108,5.993,66.88,6.58,66.88z M4.854,71.546c0.288,0.119,0.695,0.191,1.079,0.191c0.731,0,1.031-0.407,1.031-1.823
		c0-1.259-0.287-1.654-1.079-1.654c-0.288,0-0.731,0.084-1.031,0.168V71.546z"/>
	<path fill="#FFFFFF" d="M13.276,72.589c-0.456,0.324-1.092,0.504-1.644,0.504c-0.6,0-1.151-0.18-1.476-0.504
		c-0.359-0.336-0.563-0.827-0.563-1.427c0-0.528,0.156-1.009,0.492-1.332c0.42-0.396,1.079-0.539,2.158-0.539h0.948v-0.36
		c0-0.274-0.048-0.455-0.181-0.574c-0.168-0.146-0.407-0.192-0.852-0.192h-1.919v-1.056c0.588-0.119,1.512-0.229,2.231-0.229
		c0.755,0,1.451,0.145,1.858,0.516c0.36,0.336,0.528,0.78,0.528,1.549v2.865h0.743v1.057c-0.456,0.06-1.104,0.107-1.427,0.107
		C13.66,72.974,13.396,72.853,13.276,72.589z M10.985,65.297l1.942-1.812c0.229-0.203,0.433-0.215,0.6,0.023l0.612,0.852
		l-2.53,1.703L10.985,65.297z M13.192,70.396H12.22c-0.384,0-0.624,0.06-0.779,0.19c-0.12,0.108-0.192,0.288-0.192,0.504
		c0,0.443,0.228,0.708,0.863,0.708c0.336,0,0.792-0.061,1.08-0.145V70.396z"/>
	<path fill="#FFFFFF" d="M19.061,66.88c0.191,0,0.384,0.014,0.575,0.036l0.576-1.463c0.456,0.106,0.983,0.336,1.331,0.6
		l-0.852,1.188c0.624,0.348,0.996,0.959,0.996,1.895c0,1.571-0.972,2.268-2.627,2.268c-0.312,0-0.6-0.023-0.863-0.071v0.539h1.283
		c0.983,0,1.679,0.108,2.146,0.576c0.288,0.286,0.468,0.73,0.468,1.307c0,1.522-1.259,2.039-3.011,2.039h-0.012
		c-2.051,0-2.878-0.623-2.878-1.547c0-0.517,0.312-0.937,0.72-1.211c-0.229-0.156-0.336-0.396-0.336-0.696
		c0-0.42,0.323-0.936,0.779-1.331c-0.588-0.358-0.936-0.959-0.936-1.87C16.422,67.576,17.405,66.88,19.061,66.88z M17.777,73.249
		v0.275c0,0.42,0.036,0.6,0.18,0.73c0.192,0.18,0.54,0.252,1.127,0.252h0.12c0.899,0,1.26-0.204,1.26-0.646
		c0-0.408-0.24-0.611-0.983-0.611H17.777z M19.061,68.092c-0.792,0-1.115,0.371-1.115,1.043c0,0.685,0.323,1.056,1.115,1.056
		c0.779,0,1.104-0.371,1.104-1.056C20.164,68.463,19.84,68.092,19.061,68.092z"/>
	<path fill="#FFFFFF" d="M24.953,72.925h-1.667v-4.762h-0.791V67.12C22.963,67.06,23.634,67,23.971,67
		c0.756,0,0.982,0.265,0.982,0.899V72.925z M24.953,65.249c0,0.588-0.301,0.814-0.875,0.814h-0.084
		c-0.588,0-0.876-0.228-0.876-0.814v-0.156c0-0.587,0.288-0.826,0.876-0.826h0.084c0.574,0,0.875,0.239,0.875,0.826V65.249z"/>
	<path fill="#FFFFFF" d="M32.966,71.81v1.057c-0.454,0.06-1.104,0.119-1.438,0.119c-0.756,0-0.971-0.275-0.971-0.911v-2.986
		c0-0.252-0.049-0.456-0.193-0.588c-0.154-0.144-0.42-0.181-0.742-0.181c-0.359,0-0.814,0.049-1.15,0.121v4.484h-1.668v-4.762
		h-0.828V67.12c0.455-0.072,1.09-0.12,1.498-0.12c0.588,0,0.864,0.156,0.973,0.492c0.527-0.372,1.271-0.612,1.967-0.612
		c0.6,0,1.066,0.204,1.38,0.553c0.287,0.336,0.433,0.827,0.433,1.428v2.949H32.966z"/>
	<path fill="#FFFFFF" d="M37.35,72.589c-0.457,0.324-1.093,0.504-1.645,0.504c-0.6,0-1.15-0.18-1.477-0.504
		c-0.358-0.336-0.562-0.827-0.562-1.427c0-0.528,0.156-1.009,0.492-1.332c0.42-0.396,1.078-0.539,2.158-0.539h0.947v-0.36
		c0-0.274-0.048-0.455-0.181-0.574c-0.168-0.146-0.407-0.192-0.853-0.192h-1.918v-1.056c0.588-0.119,1.512-0.229,2.23-0.229
		c0.755,0,1.451,0.145,1.857,0.516c0.361,0.336,0.529,0.78,0.529,1.549v2.865h0.742v1.057c-0.456,0.06-1.104,0.107-1.427,0.107
		C37.732,72.974,37.468,72.853,37.35,72.589z M37.266,70.396h-0.973c-0.384,0-0.624,0.06-0.779,0.19
		c-0.119,0.108-0.191,0.288-0.191,0.504c0,0.443,0.228,0.708,0.863,0.708c0.336,0,0.791-0.061,1.08-0.145V70.396z"/>
</g>
<g>
	<g>
		<defs>
			<path id="SVGID_1_" d="M9.815-0.5c-9.999,0-9.999,10-9.999,10v24c0,10,9.999,10,9.999,10h24c10.002,0,10.002-10,10.002-10v-24
				c0-10-10.002-10-10.002-10H9.815z"/>
		</defs>
		<clipPath id="SVGID_2_">
			<use xlink:href="#SVGID_1_"  overflow="visible"/>
		</clipPath>
		
			<linearGradient id="SVGID_3_" gradientUnits="userSpaceOnUse" x1="-976.5278" y1="-0.2485" x2="-975.5273" y2="-0.2485" gradientTransform="matrix(0 43.2138 43.2138 0 32.5391 42199.1133)">
			<stop  offset="0" style="stop-color:#8FBACB"/>
			<stop  offset="1" style="stop-color:#599DB6"/>
		</linearGradient>
		<rect x="-0.185" y="-0.5" clip-path="url(#SVGID_2_)" fill="url(#SVGID_3_)" width="44.001" height="44"/>
	</g>
</g>
<g>
	<path fill="#FFFFFF" d="M20.815,10.672c-0.455-0.354-0.828-0.144-0.828,0.466v1.998c0,0.608,0.373,1.396,0.828,1.748l7.639,5.919
		c0.455,0.354,0.455,0.93,0,1.282l-7.639,5.922c-0.455,0.352-0.828,1.139-0.828,1.747v2c0,0.609,0.373,0.818,0.828,0.466
		l13.076-10.135c0.455-0.353,0.455-0.93,0-1.282L20.815,10.672z"/>
	<path fill="#FFFFFF" d="M10.815,31.754c0,0.609,0.372,0.818,0.828,0.466l13.075-10.135c0.454-0.353,0.454-0.93,0-1.282
		L11.644,10.671c-0.455-0.353-0.828-0.143-0.828,0.467L10.815,31.754L10.815,31.754z"/>
</g>
</svg>
