<?xml version="1.0" encoding="utf-8"?>
<!-- Generator: Adobe Illustrator 15.1.0, SVG Export Plug-In  -->
<!DOCTYPE svg PUBLIC "-//W3C//DTD SVG 1.1//EN" "http://www.w3.org/Graphics/SVG/1.1/DTD/svg11.dtd" [
	<!ENTITY ns_flows "http://ns.adobe.com/Flows/1.0/">
]>
<svg version="1.1"
	 xmlns="http://www.w3.org/2000/svg" xmlns:xlink="http://www.w3.org/1999/xlink" xmlns:a="http://ns.adobe.com/AdobeSVGViewerExtensions/3.0/"
	 x="0px" y="0px" width="3585px" height="48px" viewBox="0 0 3585 48" overflow="visible" enable-background="new 0 0 3585 48"
	 xml:space="preserve">
<defs>
</defs>
<path fill="#E6E6E6" d="M3584.736,23.918C3584.736,10.705,2782.266,0,1792.365,0C802.471,0,0,10.705,0,23.918
	s802.471,23.924,1792.365,23.924C2782.266,47.842,3584.736,37.131,3584.736,23.918z"/>
<path fill="#E2E2E2" d="M3436.675,23.918c0-11.888-736.181-21.519-1644.311-21.519c-908.122,0-1644.303,9.631-1644.303,21.519
	c0,11.887,736.181,21.524,1644.303,21.524C2700.494,45.442,3436.675,35.805,3436.675,23.918z"/>
<path fill="#DFDFDF" d="M3288.613,23.918c0-10.562-669.892-19.12-1496.25-19.12c-826.35,0-1496.241,8.558-1496.241,19.12
	c0,10.562,669.891,19.124,1496.241,19.124C2618.722,43.042,3288.613,34.479,3288.613,23.918z"/>
<path fill="#DBDBDB" d="M3140.552,23.918c0-9.237-603.602-16.721-1348.189-16.721c-744.577,0-1348.179,7.483-1348.179,16.721
	c0,9.235,603.602,16.725,1348.179,16.725C2536.95,40.643,3140.552,33.153,3140.552,23.918z"/>
<path fill="#D7D7D7" d="M2992.491,23.918c0-7.913-537.312-14.322-1200.129-14.322c-662.804,0-1200.116,6.409-1200.116,14.322
	c0,7.909,537.312,14.324,1200.116,14.324C2455.179,38.242,2992.491,31.827,2992.491,23.918z"/>
<path fill="#D3D3D3" d="M2844.43,23.918c0-6.588-471.022-11.923-1052.069-11.923c-581.031,0-1052.054,5.335-1052.054,11.923
	c0,6.583,471.022,11.925,1052.054,11.925C2373.407,35.843,2844.43,30.501,2844.43,23.918z"/>
<path fill="#D0D0D0" d="M2696.368,23.918c0-5.263-404.733-9.524-904.008-9.524c-499.259,0-903.992,4.262-903.992,9.524
	c0,5.258,404.733,9.524,903.992,9.524C2291.635,33.442,2696.368,29.176,2696.368,23.918z"/>
<path fill="#CCCCCC" d="M2548.307,23.918c0-3.938-338.443-7.125-755.947-7.125c-417.486,0-755.93,3.188-755.93,7.125
	c0,3.932,338.443,7.125,755.93,7.125C2209.863,31.043,2548.307,27.85,2548.307,23.918z"/>
</svg>
