<?xml version="1.0" encoding="utf-8"?>
<!-- Generator: Adobe Illustrator 16.0.0, SVG Export Plug-In . SVG Version: 6.00 Build 0)  -->
<!DOCTYPE svg PUBLIC "-//W3C//DTD SVG 1.1//EN" "http://www.w3.org/Graphics/SVG/1.1/DTD/svg11.dtd">
<svg version="1.1" id="Capa_1" xmlns="http://www.w3.org/2000/svg" xmlns:xlink="http://www.w3.org/1999/xlink" x="0px" y="0px"
	 width="44px" height="44px" viewBox="0 0 44 44" enable-background="new 0 0 44 44" xml:space="preserve">
<polygon fill="#AFB0B2" points="21.999,25.1 25.647,30.682 28.813,28.045 24.593,22.901 30.88,21.143 29.298,17.275 23.626,19.736 
	23.978,13.318 19.889,13.318 20.373,19.736 14.702,17.275 13.12,21.143 19.406,22.901 15.186,28.045 18.352,30.682 "/>
<g>
	<polygon fill="#AFB0B2" points="21.999,25.1 25.647,30.682 28.813,28.045 24.593,22.901 30.88,21.143 29.298,17.275 23.626,19.736 
		23.978,13.318 19.889,13.318 20.373,19.736 14.702,17.275 13.12,21.143 19.406,22.901 15.186,28.045 18.352,30.682 	"/>
</g>
</svg>
