<?xml version="1.0" encoding="utf-8"?>
<!-- Generator: Adobe Illustrator 15.1.0, SVG Export Plug-In . SVG Version: 6.00 Build 0)  -->
<!DOCTYPE svg PUBLIC "-//W3C//DTD SVG 1.1//EN" "http://www.w3.org/Graphics/SVG/1.1/DTD/svg11.dtd">
<svg version="1.1" id="Capa_1" xmlns="http://www.w3.org/2000/svg" xmlns:xlink="http://www.w3.org/1999/xlink" x="0px" y="0px"
	 width="44px" height="44px" viewBox="0 0 44 44" enable-background="new 0 0 44 44" xml:space="preserve">
<path fill="#FFFFFF" d="M27.933,13.754l-5.934,5.934l-5.934-5.933c-0.638-0.638-1.67-0.639-2.311,0
	c-0.638,0.638-0.639,1.673,0,2.311L19.688,22l-5.933,5.933c-0.638,0.638-0.637,1.672,0.002,2.311
	c0.639,0.638,1.671,0.638,2.309-0.001l5.934-5.933l5.936,5.936c0.637,0.637,1.672,0.639,2.311,0s0.639-1.672,0-2.311l-5.936-5.936
	l5.936-5.935c0.637-0.637,0.639-1.671,0-2.309C29.604,13.117,28.57,13.117,27.933,13.754z"/>
</svg>
