<?xml version="1.0" encoding="utf-8"?>
<!-- Generator: Adobe Illustrator 16.0.0, SVG Export Plug-In . SVG Version: 6.00 Build 0)  -->
<!DOCTYPE svg PUBLIC "-//W3C//DTD SVG 1.1//EN" "http://www.w3.org/Graphics/SVG/1.1/DTD/svg11.dtd">
<svg version="1.1" id="Capa_1" xmlns="http://www.w3.org/2000/svg" xmlns:xlink="http://www.w3.org/1999/xlink" x="0px" y="0px"
	 width="44px" height="44px" viewBox="0 0 44 44" enable-background="new 0 0 44 44" xml:space="preserve">
<g>
	<path fill="#005C84" d="M32.773,22.292c0.354-0.454,0.143-0.827-0.465-0.827h-1.998c-0.609,0-1.396,0.373-1.748,0.827l-5.92,7.64
		c-0.354,0.455-0.933,0.455-1.285,0l-5.921-7.64c-0.353-0.454-1.14-0.827-1.748-0.827h-2c-0.608,0-0.817,0.373-0.465,0.827
		L21.36,35.367c0.354,0.455,0.93,0.455,1.283,0L32.773,22.292z"/>
	<path fill="#005C84" d="M11.691,12.292c-0.608,0-0.817,0.372-0.465,0.828L21.36,26.193c0.354,0.455,0.93,0.455,1.283,0
		L32.773,13.12c0.354-0.455,0.143-0.828-0.465-0.828H11.691z"/>
</g>
</svg>
