<?xml version="1.0" encoding="utf-8"?>
<!-- Generator: Adobe Illustrator 16.0.0, SVG Export Plug-In . SVG Version: 6.00 Build 0)  -->
<!DOCTYPE svg PUBLIC "-//W3C//DTD SVG 1.1//EN" "http://www.w3.org/Graphics/SVG/1.1/DTD/svg11.dtd">
<svg version="1.1" id="Capa_1" xmlns="http://www.w3.org/2000/svg" xmlns:xlink="http://www.w3.org/1999/xlink" x="0px" y="0px"
	 width="29px" height="37.856px" viewBox="7.5 3.072 29 37.856" enable-background="new 7.5 3.072 29 37.856" xml:space="preserve">
<g>
	<path fill="#005C84" d="M21.986,24.559c-0.975,0.003-1.948-0.372-2.687-1.112l-0.039-0.04l-4.842-4.844l0.015,0.012
		c-0.458-0.454-0.691-1.058-0.688-1.652c-0.003-0.591,0.228-1.204,0.691-1.658c0.455-0.451,1.061-0.681,1.652-0.681h0.007
		c0.022,0,0.044,0,0.069,0.005h0.09l1.37,0.003V4.147c0-0.594,0.478-1.075,1.078-1.075c0.595,0,1.078,0.48,1.078,1.075v11.519
		c0,0.285-0.114,0.559-0.318,0.76c-0.203,0.206-0.473,0.318-0.763,0.318l-2.447-0.002h-0.151l-0.02-0.002
		c-0.047,0.002-0.092,0.02-0.126,0.054c-0.035,0.04-0.052,0.077-0.052,0.128c0,0.05,0.013,0.088,0.097,0.174l-0.016-0.011
		l4.804,4.798l0.037,0.04c0.323,0.323,0.741,0.478,1.164,0.483c0.42-0.005,0.842-0.16,1.165-0.483l0.039-0.04l4.777-4.772
		l0.068-0.079c0.039-0.04,0.052-0.083,0.052-0.128c0-0.053-0.013-0.09-0.05-0.127c-0.039-0.04-0.082-0.052-0.119-0.057l-0.036,0.002
		l-0.141-0.002h-2.465c-0.286,0-0.566-0.114-0.765-0.317c-0.199-0.198-0.316-0.475-0.316-0.762V4.147h0.002
		c0-0.594,0.483-1.075,1.077-1.075s1.076,0.48,1.076,1.075v10.413h1.4l0.111,0.004c0.013,0,0.03,0,0.05-0.004
		c0.594,0,1.194,0.239,1.647,0.688c0.459,0.454,0.689,1.059,0.688,1.653c0.002,0.596-0.232,1.199-0.645,1.606l-0.072,0.079
		l-4.82,4.818l-0.036,0.042c-0.741,0.736-1.713,1.11-2.678,1.11h-0.01V24.559z M11.253,29.282c-2.076,0-3.752-1.682-3.752-3.753
		v-6.222c0-0.597,0.48-1.083,1.074-1.083c0.595,0,1.078,0.486,1.078,1.083v6.222c0,0.884,0.715,1.598,1.601,1.598h21.491
		c0.88,0,1.598-0.719,1.598-1.598l0.002-6.222c0-0.597,0.483-1.083,1.078-1.083c0.593,0,1.078,0.486,1.078,1.083v6.222
		c-0.008,2.071-1.686,3.753-3.756,3.753H11.253z"/>
	<g>
		<path fill="#005C84" d="M15.611,39.884v1.043h-3.025v-1.043h0.717v-5.121h-0.717v-1.042h3.067c1.138,0,1.886,0.126,2.361,0.537
			c0.39,0.336,0.59,0.863,0.59,1.653c0,1.391-0.538,2.394-2.403,2.394c-0.411,0-1.021-0.074-1.316-0.138v1.718L15.611,39.884
			L15.611,39.884z M14.884,37.207H15.8c0.443,0,0.707-0.072,0.896-0.252c0.2-0.212,0.305-0.538,0.305-1.022
			c0-0.411-0.084-0.717-0.285-0.906c-0.189-0.18-0.505-0.264-1.011-0.264h-0.822V37.207z"/>
		<path fill="#005C84" d="M19.408,40.927v-1.043h0.717v-5.121h-0.717v-1.042h2.898c1.36,0,2.277,0.21,2.865,0.812
			c0.569,0.558,0.865,1.453,0.865,2.76c0,1.317-0.274,2.234-0.865,2.824c-0.527,0.549-1.358,0.812-2.634,0.812h-3.129V40.927z
			 M21.705,39.861h0.726c0.748,0,1.275-0.221,1.571-0.642c0.294-0.433,0.389-1.054,0.389-1.929c0-1.022-0.156-1.643-0.515-2.033
			c-0.328-0.348-0.821-0.475-1.633-0.475h-0.538V39.861z"/>
		<path fill="#005C84" d="M29.306,34.763v1.949h1.677c0.252,0,0.305,0.01,0.305,0.137v0.98h-1.981v2.055h0.845v1.043h-3.142v-1.043
			h0.718v-5.121h-0.718v-1.042h5.196c0.346,0,0.41,0.021,0.41,0.189v1.865h-1.021c-0.096-0.19-0.19-0.727-0.201-1.011h-2.087V34.763
			z"/>
	</g>
</g>
</svg>
