<?xml version="1.0" encoding="utf-8"?>
<!-- Generator: Adobe Illustrator 15.1.0, SVG Export Plug-In . SVG Version: 6.00 Build 0)  -->
<!DOCTYPE svg PUBLIC "-//W3C//DTD SVG 1.1//EN" "http://www.w3.org/Graphics/SVG/1.1/DTD/svg11.dtd">
<svg version="1.1" id="Capa_1" xmlns="http://www.w3.org/2000/svg" xmlns:xlink="http://www.w3.org/1999/xlink" x="0px" y="0px"
	 width="44px" height="44px" viewBox="0 0 44 44" enable-background="new 0 0 44 44" xml:space="preserve">
<g>
	<g>
		<path fill="#FFFFFF" d="M32.116,8.406H11.887c-1.72,0-3.12,1.391-3.12,3.099v20.967c0,1.708,1.4,3.097,3.12,3.097h5.158
			c0.436,0,0.788-0.349,0.788-0.783c0-0.432-0.353-0.783-0.788-0.783h-5.158c-0.851,0-1.542-0.687-1.542-1.53v-2.681l3.221,2.193
			c-0.006,0.134,0.018,0.267,0.07,0.394c0.1,0.247,0.292,0.439,0.537,0.541c0.123,0.056,0.256,0.079,0.393,0.079
			c0.4,0,0.762-0.236,0.918-0.604c0.104-0.243,0.105-0.513,0.006-0.761c-0.102-0.245-0.293-0.439-0.537-0.542
			c-0.125-0.053-0.254-0.08-0.387-0.08c-0.135,0-0.263,0.029-0.382,0.075l-3.839-2.614v-1.541l6.865,2.864
			c0.088,0.463,0.494,0.813,0.98,0.813c0.553,0,1.002-0.446,1.002-0.994c0-0.55-0.449-0.995-1.002-0.995
			c-0.203,0-0.398,0.066-0.558,0.174l-7.288-3.042V24.75l9.206,1.899c0.149,0.381,0.513,0.628,0.927,0.628
			c0.123,0,0.244-0.024,0.363-0.069c0.514-0.2,0.77-0.777,0.568-1.283c-0.146-0.381-0.521-0.634-0.932-0.634
			c-0.126,0-0.246,0.022-0.363,0.068c-0.131,0.05-0.246,0.128-0.344,0.224l-9.426-1.944v-1.162h10.212
			c0.037,0.055,0.081,0.109,0.13,0.159c0.191,0.187,0.439,0.29,0.706,0.29s0.517-0.104,0.704-0.29
			c0.391-0.385,0.391-1.017,0.002-1.409c-0.189-0.187-0.438-0.287-0.706-0.287c-0.267,0-0.521,0.102-0.706,0.289
			c-0.049,0.048-0.093,0.103-0.13,0.158H10.345v-1.019l9.52-1.839c0.097,0.101,0.211,0.182,0.342,0.239
			c0.127,0.052,0.256,0.078,0.393,0.078c0.4,0,0.764-0.24,0.914-0.602c0.105-0.243,0.107-0.515,0.007-0.763
			c-0.099-0.248-0.29-0.441-0.534-0.544c-0.123-0.052-0.252-0.078-0.387-0.078c-0.4,0-0.758,0.235-0.917,0.594l-9.337,1.807V18.05
			l7.284-2.984c0.161,0.109,0.354,0.174,0.563,0.174c0.551,0,1-0.446,1-0.994s-0.449-0.995-1-0.995c-0.486,0-0.892,0.35-0.98,0.809
			l-6.867,2.814v-1.352l4.094-2.643c0.124,0.056,0.258,0.084,0.401,0.084c0.126,0,0.248-0.021,0.368-0.066
			c0.511-0.2,0.762-0.778,0.562-1.286c-0.148-0.38-0.523-0.633-0.934-0.633c-0.123,0-0.242,0.022-0.358,0.067
			c-0.25,0.097-0.446,0.285-0.553,0.53c-0.054,0.126-0.082,0.26-0.082,0.389l-3.499,2.261v-2.72c0-0.842,0.691-1.529,1.542-1.529
			h20.229c0.85,0,1.539,0.688,1.539,1.529v17.576c0,0.433,0.354,0.783,0.791,0.783c0.435,0,0.787-0.351,0.787-0.783V11.505
			C35.233,9.797,33.836,8.406,32.116,8.406"/>
		<path fill="#FFFFFF" d="M25.925,34.8h-0.867v-1.166h0.867c0.324,0,0.588,0.261,0.588,0.581C26.513,34.537,26.249,34.8,25.925,34.8
			 M25.755,31.821c0.282,0,0.51,0.228,0.51,0.509c0,0.28-0.228,0.508-0.51,0.508c-0.003,0-0.006,0.002-0.009,0.002h-0.688v-1.017
			L25.755,31.821z M26.774,33.137c0.178-0.223,0.289-0.5,0.289-0.807c0-0.718-0.588-1.303-1.31-1.303l-1.097,0.004
			c-0.028,0-0.053,0.01-0.08,0.016c-0.025,0.005-0.051,0.006-0.074,0.016c-0.029,0.012-0.052,0.033-0.077,0.051
			c-0.016,0.012-0.036,0.02-0.049,0.035c-0.022,0.02-0.035,0.049-0.052,0.074c-0.012,0.019-0.026,0.031-0.034,0.051
			c-0.011,0.025-0.013,0.056-0.017,0.084c-0.004,0.022-0.015,0.046-0.015,0.07v3.77c0,0.218,0.179,0.396,0.399,0.396h1.266
			c0.764,0,1.385-0.619,1.385-1.379C27.31,33.776,27.099,33.389,26.774,33.137"/>
		<path fill="#FFFFFF" d="M22.994,31.018c-0.22,0-0.399,0.179-0.399,0.397v3.767c0,0.219,0.18,0.397,0.399,0.397
			s0.399-0.179,0.399-0.397v-3.767C23.394,31.196,23.214,31.018,22.994,31.018"/>
		<path fill="#FFFFFF" d="M21.666,31.018h-2.108c-0.002,0-0.004,0.001-0.005,0.001s-0.003-0.001-0.004-0.001
			c-0.22,0-0.399,0.179-0.399,0.397v3.767c0,0.219,0.18,0.397,0.399,0.397s0.399-0.179,0.399-0.397v-1.479h1.386
			c0.22,0,0.399-0.179,0.399-0.397s-0.18-0.396-0.399-0.396h-1.386v-1.097h1.718c0.22,0,0.399-0.179,0.399-0.396
			C22.065,31.196,21.886,31.018,21.666,31.018"/>
		<path fill="#FFFFFF" d="M28.72,31.822h0.865c0.324,0,0.586,0.262,0.586,0.581c0,0.322-0.262,0.584-0.586,0.584H28.72V31.822z
			 M30.97,32.403c0-0.757-0.621-1.375-1.385-1.375h-1.252c-0.002,0-0.004,0.002-0.006,0.002s-0.005-0.002-0.007-0.002
			c-0.221,0-0.399,0.179-0.399,0.397v3.769c0,0.22,0.179,0.397,0.399,0.397c0.22,0,0.399-0.178,0.399-0.397V33.78h0.629l0.871,1.604
			c0.072,0.133,0.21,0.208,0.351,0.208c0.065,0,0.13-0.016,0.19-0.048c0.193-0.104,0.266-0.345,0.16-0.537l-0.741-1.364
			C30.646,33.421,30.97,32.95,30.97,32.403"/>
		<path fill="#FFFFFF" d="M32.684,33.844l0.562-1.376l0.562,1.376H32.684z M33.614,31.265c-0.121-0.3-0.617-0.3-0.738,0l-1.539,3.77
			c-0.082,0.203,0.016,0.434,0.22,0.517c0.205,0.081,0.437-0.016,0.521-0.219l0.282-0.695h1.771l0.283,0.695
			c0.063,0.154,0.213,0.248,0.369,0.248c0.051,0,0.102-0.009,0.151-0.029c0.203-0.083,0.302-0.313,0.219-0.517L33.614,31.265z"/>
	</g>
</g>
</svg>
