<?xml version="1.0" encoding="utf-8"?>
<!-- Generator: Adobe Illustrator 15.1.0, SVG Export Plug-In . SVG Version: 6.00 Build 0)  -->
<!DOCTYPE svg PUBLIC "-//W3C//DTD SVG 1.1//EN" "http://www.w3.org/Graphics/SVG/1.1/DTD/svg11.dtd">
<svg version="1.1" id="Capa_1" xmlns="http://www.w3.org/2000/svg" xmlns:xlink="http://www.w3.org/1999/xlink" x="0px" y="0px"
	 width="44px" height="44px" viewBox="0 0 44 44" enable-background="new 0 0 44 44" xml:space="preserve">
<g>
	<path fill="none" stroke="#FFFFFF" stroke-width="1.6" stroke-linecap="round" stroke-linejoin="round" d="M20.6,32.896
		c-0.425-0.106-0.859,0.168-0.958,0.601c-0.236,1.027-0.797,1.917-1.621,2.572c-2.014,1.598-4.974,1.245-6.594-0.788
		c-1.619-2.038-1.3-4.995,0.711-6.593c0.346-0.274,0.403-0.777,0.128-1.124c-0.273-0.344-0.776-0.404-1.124-0.128
		c-2.701,2.146-3.136,6.11-0.968,8.84c1.253,1.573,3.104,2.395,4.966,2.395c1.364,0,2.733-0.44,3.877-1.35
		c1.095-0.87,1.87-2.101,2.184-3.467C21.3,33.424,21.03,32.995,20.6,32.896z"/>
	<path fill="none" stroke="#FFFFFF" stroke-width="1.6" stroke-linecap="round" stroke-linejoin="round" d="M31.668,22.638
		c-0.047,0.439,0.271,0.833,0.711,0.881c0.438,0.051,0.833-0.271,0.881-0.711c0.458-4.277-1.65-8.355-5.375-10.39
		c-2.43-1.321-5.241-1.612-7.914-0.821c-2.737,0.812-5.002,2.657-6.374,5.193c-1.147,2.115-1.551,4.483-1.167,6.849
		c0.064,0.393,0.403,0.672,0.789,0.672c0.043,0,0.086-0.003,0.129-0.01c0.437-0.071,0.732-0.482,0.662-0.918
		c-0.327-2.013,0.017-4.028,0.994-5.83c1.169-2.161,3.095-3.731,5.422-4.422c2.262-0.672,4.639-0.426,6.693,0.692
		C30.272,15.545,32.058,19.005,31.668,22.638z"/>
	<path fill="none" stroke="#FFFFFF" stroke-width="1.6" stroke-linecap="round" stroke-linejoin="round" d="M35.164,24.438
		c-1.188-0.646-2.562-0.791-3.868-0.401c-1.337,0.396-2.441,1.296-3.111,2.533c-0.56,1.031-0.756,2.187-0.569,3.34
		c0.06,0.365,0.357,0.633,0.709,0.668c-0.257,0.242-0.331,0.635-0.156,0.961c0.469,0.871,1.173,1.58,2.037,2.05
		c0.75,0.408,1.574,0.615,2.409,0.615c0.486,0,0.977-0.07,1.458-0.213c1.336-0.396,2.44-1.294,3.11-2.53
		C38.547,28.94,37.642,25.791,35.164,24.438z M35.776,30.697c-0.466,0.86-1.232,1.484-2.158,1.759
		c-0.896,0.265-1.836,0.168-2.649-0.274c-0.59-0.32-1.07-0.805-1.391-1.401c-0.131-0.242-0.369-0.391-0.624-0.417
		c0.187-0.176,0.285-0.438,0.241-0.71c-0.13-0.801,0.007-1.604,0.396-2.322c0.467-0.861,1.233-1.486,2.16-1.762
		c0.898-0.264,1.837-0.167,2.647,0.273C36.104,26.773,36.721,28.952,35.776,30.697z"/>
	<path fill="none" stroke="#FFFFFF" stroke-width="1.6" stroke-linecap="round" stroke-linejoin="round" d="M10.577,20.367
		c0.317,0,0.618-0.19,0.743-0.504c0.163-0.41-0.036-0.875-0.447-1.039c-1.294-0.516-2.348-1.428-3.046-2.637
		c-1.704-2.949-0.692-6.734,2.254-8.437c2.947-1.697,6.732-0.683,8.433,2.263c0.22,0.382,0.711,0.515,1.093,0.292
		c0.382-0.221,0.514-0.71,0.292-1.093c-2.14-3.708-6.903-4.985-10.617-2.848C5.57,8.509,4.297,13.274,6.442,16.988
		c0.879,1.522,2.207,2.672,3.839,3.322C10.378,20.35,10.479,20.367,10.577,20.367z"/>
	<path fill="none" stroke="#FFFFFF" stroke-width="1.6" stroke-linecap="round" stroke-linejoin="round" d="M30.396,11.349
		c0.523-0.658,1.229-1.104,2.043-1.291c1.993-0.46,3.996,0.808,4.464,2.826c0.464,2.019-0.776,4.033-2.766,4.492
		c-0.431,0.099-0.699,0.528-0.6,0.959c0.085,0.37,0.414,0.62,0.778,0.62c0.06,0,0.12-0.006,0.181-0.021
		c2.849-0.656,4.627-3.532,3.965-6.411c-0.667-2.877-3.528-4.685-6.381-4.024c-1.171,0.268-2.187,0.909-2.937,1.854
		c-0.275,0.347-0.218,0.85,0.128,1.124C29.62,11.753,30.123,11.693,30.396,11.349z"/>
	<path fill="none" stroke="#FFFFFF" stroke-width="1.6" stroke-linecap="round" stroke-linejoin="round" d="M25.963,30.184
		c-2.455,0.979-5.179,0.824-7.471-0.423c-1.495-0.812-2.712-2.038-3.52-3.542c-0.209-0.39-0.692-0.535-1.084-0.326
		c-0.389,0.209-0.535,0.694-0.326,1.084c0.956,1.778,2.396,3.228,4.165,4.19c1.532,0.833,3.227,1.254,4.934,1.254
		c1.312,0,2.633-0.249,3.894-0.751c0.41-0.163,0.61-0.629,0.447-1.039C26.838,30.22,26.372,30.021,25.963,30.184z"/>
</g>
</svg>
