<?xml version="1.0" encoding="utf-8"?>
<!-- Generator: Adobe Illustrator 15.1.0, SVG Export Plug-In . SVG Version: 6.00 Build 0)  -->
<!DOCTYPE svg PUBLIC "-//W3C//DTD SVG 1.1//EN" "http://www.w3.org/Graphics/SVG/1.1/DTD/svg11.dtd">
<svg version="1.1" id="Capa_1" xmlns="http://www.w3.org/2000/svg" xmlns:xlink="http://www.w3.org/1999/xlink" x="0px" y="0px"
	 width="44px" height="44px" viewBox="0 0 44 44" enable-background="new 0 0 44 44" xml:space="preserve">
<g>
	<path fill="#FFFFFF" d="M28.715,21H23v-5.715c0-0.553-0.447-1-1-1s-1,0.447-1,1V21h-5.716c-0.553,0-1,0.447-1,1s0.447,1,1,1H21
		v5.715c0,0.553,0.447,1,1,1s1-0.447,1-1V23h5.715c0.553,0,1-0.447,1-1S29.268,21,28.715,21z"/>
	<path fill="#FFFFFF" d="M34.497,7.486c-0.355-0.129-0.733-0.211-1.133-0.211h-22.73C8.78,7.278,7.276,8.781,7.274,10.633v0.001
		v22.732v0.001c0.002,1.852,1.506,3.354,3.359,3.357h22.73c0.399,0,0.777-0.082,1.133-0.211c1.297-0.467,2.229-1.693,2.229-3.146
		v-0.001V10.634v-0.001C36.726,9.18,35.794,7.953,34.497,7.486z M33.364,35.024h-22.73c-0.912-0.002-1.658-0.751-1.66-1.658V10.634
		c0.002-0.907,0.748-1.656,1.66-1.658h22.73c0.914,0.002,1.659,0.751,1.661,1.658v22.732C35.023,34.273,34.278,35.022,33.364,35.024
		z"/>
</g>
</svg>
