<?xml version="1.0" encoding="utf-8"?>
<!-- Generator: Adobe Illustrator 16.0.0, SVG Export Plug-In . SVG Version: 6.00 Build 0)  -->
<!DOCTYPE svg PUBLIC "-//W3C//DTD SVG 1.1//EN" "http://www.w3.org/Graphics/SVG/1.1/DTD/svg11.dtd">
<svg version="1.1" id="Capa_1" xmlns="http://www.w3.org/2000/svg" xmlns:xlink="http://www.w3.org/1999/xlink" x="0px" y="0px"
	 width="44px" height="44px" viewBox="0 0 44 44" enable-background="new 0 0 44 44" xml:space="preserve">
<g>
	<g>
		<path fill="#7AB800" d="M10.224,36.365h1.322v1.33c0,0.379,0.309,0.686,0.689,0.686c0.38,0,0.687-0.307,0.687-0.686v-1.33
			l16.553,0.006c0.439,0,0.855-0.174,1.168-0.486c0.312-0.314,0.484-0.732,0.481-1.17v-7.9h-1.376v7.902
			c0,0.098-0.05,0.164-0.081,0.197c-0.028,0.029-0.095,0.078-0.192,0.078l-16.553-0.004V22.812c0-0.152,0.126-0.279,0.279-0.279
			h3.672v-1.375h-3.672c-0.912,0-1.655,0.742-1.655,1.654v12.176h-1.322c-0.382,0-0.688,0.312-0.688,0.691
			C9.536,36.059,9.842,36.365,10.224,36.365"/>
		<path fill="#7AB800" d="M19.999,19.787c0.108,0.112,0.183,0.188,0.26,0.263c2.045,2.085,4.15,4.601,5.162,5.837l5.39-6.123
			c1.306-1.402,2.015-3.198,2.015-5.076c0-4.096-3.332-7.429-7.431-7.429s-7.431,3.333-7.431,7.429c0,1.878,0.711,3.675,2,5.059
			C19.976,19.758,19.986,19.772,19.999,19.787 M25.395,27.98h-0.021c-0.242-0.006-0.472-0.121-0.621-0.312
			c-0.026-0.037-2.908-3.66-5.648-6.457c-0.094-0.089-0.201-0.201-0.307-0.312c-0.012-0.011-0.021-0.022-0.033-0.037
			c-1.573-1.688-2.439-3.88-2.439-6.176c0-5,4.068-9.069,9.068-9.069c5.002,0,9.07,4.069,9.07,9.069
			c0,2.296-0.865,4.488-2.439,6.176l-6.014,6.839C25.854,27.879,25.63,27.98,25.395,27.98"/>
		<path fill="#7AB800" d="M25.395,11.912c-1.565,0-2.84,1.274-2.84,2.84c0,1.567,1.272,2.84,2.84,2.84c1.566,0,2.84-1.272,2.84-2.84
			C28.234,13.186,26.96,11.912,25.395,11.912 M25.395,19.222c-2.465,0-4.472-2.005-4.472-4.471c0-2.465,2.007-4.47,4.472-4.47
			s4.472,2.005,4.472,4.47C29.863,17.217,27.859,19.222,25.395,19.222"/>
	</g>
</g>
</svg>
