<?xml version="1.0" encoding="utf-8"?>
<!-- Generator: Adobe Illustrator 15.1.0, SVG Export Plug-In . SVG Version: 6.00 Build 0)  -->
<!DOCTYPE svg PUBLIC "-//W3C//DTD SVG 1.1//EN" "http://www.w3.org/Graphics/SVG/1.1/DTD/svg11.dtd">
<svg version="1.1" id="Capa_1" xmlns="http://www.w3.org/2000/svg" xmlns:xlink="http://www.w3.org/1999/xlink" x="0px" y="0px"
	 width="44px" height="44px" viewBox="0 0 44 44" enable-background="new 0 0 44 44" xml:space="preserve">
<path fill="#FFFFFF" d="M32.488,18.861h-7.35v-7.35c0-1.104-0.896-2-2-2h-2.276c-1.104,0-2,0.896-2,2v7.35h-7.351
	c-1.104,0-2,0.896-2,2v2.277c0,1.104,0.896,2,2,2h7.351v7.35c0,1.104,0.896,2,2,2h2.276c1.104,0,2-0.896,2-2v-7.35h7.35
	c1.104,0,2-0.896,2-2v-2.277C34.488,19.757,33.593,18.861,32.488,18.861z"/>
</svg>
