<?xml version="1.0" encoding="utf-8"?>
<!-- Generator: Adobe Illustrator 15.1.0, SVG Export Plug-In . SVG Version: 6.00 Build 0)  -->
<!DOCTYPE svg PUBLIC "-//W3C//DTD SVG 1.1//EN" "http://www.w3.org/Graphics/SVG/1.1/DTD/svg11.dtd">
<svg version="1.1" id="Capa_1" xmlns="http://www.w3.org/2000/svg" xmlns:xlink="http://www.w3.org/1999/xlink" x="0px" y="0px"
	 width="44px" height="44px" viewBox="0 0 44 44" enable-background="new 0 0 44 44" xml:space="preserve">
<path fill="#FFFFFF" d="M29.431,30.876v-15.66c0-1.534-1.246-2.775-2.777-2.775h-7.902c-0.104,0-0.177,0.068-0.266,0.108
	c-0.684,0.215-1.188,0.83-1.188,1.584v0.811c0,0.932,0.753,1.684,1.684,1.684h6.065c0.153,0.002,0.276,0.126,0.277,0.279v6.342
	c0,0.375,0.017,0.397-0.319,0.397h-5.981c-0.151,0-0.276-0.127-0.278-0.279v-4.991c0-0.388-0.315-0.703-0.704-0.703
	c-0.387,0-0.703,0.315-0.703,0.703v4.991c0.002,0.934,0.755,1.687,1.686,1.688h7.002c0.003,0,0.003,0,0.003,0l0,0
	c0.389,0,0.704-0.314,0.704-0.703v-7.444c0-0.932-0.756-1.686-1.686-1.686h-6.065c-0.15,0-0.275-0.124-0.275-0.277v-0.811
	c0-0.152,0.127-0.276,0.277-0.276h7.657c0.757,0,1.373,0.613,1.375,1.37v4.607c0,0.009,0.007,0.014,0.007,0.02v11.022
	c0,0.76-0.613,1.373-1.369,1.375h-9.305c-0.757-0.002-1.371-0.611-1.373-1.375V11.043c0-0.387-0.314-0.703-0.702-0.703
	c-0.391,0-0.704,0.316-0.704,0.703v19.833c0,1.538,1.245,2.784,2.779,2.784h9.305C28.186,33.658,29.431,32.414,29.431,30.876"/>
</svg>
