<?xml version="1.0" encoding="utf-8"?>
<!-- Generator: Adobe Illustrator 16.0.0, SVG Export Plug-In . SVG Version: 6.00 Build 0)  -->
<!DOCTYPE svg PUBLIC "-//W3C//DTD SVG 1.1//EN" "http://www.w3.org/Graphics/SVG/1.1/DTD/svg11.dtd">
<svg version="1.1" id="Capa_1" xmlns="http://www.w3.org/2000/svg" xmlns:xlink="http://www.w3.org/1999/xlink" x="0px" y="0px"
	 width="76px" height="68px" viewBox="51 9 76 68" enable-background="new 51 9 76 68" xml:space="preserve">
<g>
	<path fill="#AFB0B2" d="M98.739,58.263H83.264c-1.942,0-3.521-1.665-3.521-3.713V32.256c0-2.042,1.579-3.702,3.521-3.702h1.664
		c0.488,0,0.885,0.416,0.885,0.932c0,0.515-0.396,0.933-0.885,0.933h-1.664c-0.967,0-1.754,0.825-1.754,1.838V54.55
		c0,1.021,0.787,1.85,1.754,1.85h15.476c0.965,0,1.75-0.828,1.75-1.85V32.256c0-1.013-0.785-1.838-1.75-1.838h-1.666
		c-0.489,0-0.883-0.418-0.883-0.933c0-0.516,0.394-0.932,0.883-0.932h1.666c1.94,0,3.519,1.66,3.519,3.702V54.55
		C102.258,56.598,100.68,58.263,98.739,58.263"/>
	<path fill="#AFB0B2" d="M96.798,39.455H85.204c-0.316,0-0.573-0.269-0.573-0.603c0-0.332,0.257-0.603,0.573-0.603h11.594
		c0.315,0,0.572,0.271,0.572,0.603C97.37,39.187,97.113,39.455,96.798,39.455 M96.798,43.435H85.204
		c-0.316,0-0.573-0.271-0.573-0.604c0-0.333,0.257-0.603,0.573-0.603h11.594c0.315,0,0.572,0.27,0.572,0.603
		C97.37,43.164,97.113,43.435,96.798,43.435 M96.798,47.4H85.204c-0.316,0-0.573-0.27-0.573-0.603c0-0.332,0.257-0.602,0.573-0.602
		h11.594c0.315,0,0.572,0.27,0.572,0.602C97.37,47.131,97.113,47.4,96.798,47.4 M96.798,51.378H85.204
		c-0.316,0-0.573-0.269-0.573-0.603c0-0.333,0.257-0.602,0.573-0.602h11.594c0.315,0,0.572,0.269,0.572,0.602
		C97.37,51.109,97.113,51.378,96.798,51.378"/>
	<path fill="#AFB0B2" d="M89.033,28.942c-0.37,0-0.671,0.317-0.671,0.705v2.934c0,0.385,0.301,0.697,0.671,0.697h3.934
		c0.369,0,0.67-0.312,0.67-0.697v-2.934c0-0.388-0.301-0.705-0.67-0.705H89.033z M92.967,34.484h-3.934
		c-1.001,0-1.814-0.854-1.814-1.903v-2.934c0-1.053,0.813-1.91,1.814-1.91h3.934c1.002,0,1.814,0.857,1.814,1.91v2.934
		C94.781,33.631,93.969,34.484,92.967,34.484"/>
</g>
</svg>
