<?xml version="1.0" encoding="utf-8"?>
<!-- Generator: Adobe Illustrator 16.0.0, SVG Export Plug-In . SVG Version: 6.00 Build 0)  -->
<!DOCTYPE svg PUBLIC "-//W3C//DTD SVG 1.1//EN" "http://www.w3.org/Graphics/SVG/1.1/DTD/svg11.dtd">
<svg version="1.1" id="Capa_1" xmlns="http://www.w3.org/2000/svg" xmlns:xlink="http://www.w3.org/1999/xlink" x="0px" y="0px"
	 width="29.19px" height="29.184px" viewBox="8 7.816 29.19 29.184" enable-background="new 8 7.816 29.19 29.184"
	 xml:space="preserve">
<g>
	<path fill="#005C84" d="M21.229,16.614v11.589l5.799-5.794L21.229,16.614z M20.171,31.822c-0.139,0-0.276-0.025-0.408-0.079
		c-0.395-0.165-0.655-0.551-0.655-0.98V14.055c0-0.429,0.26-0.814,0.655-0.979c0.396-0.167,0.853-0.074,1.155,0.229l8.357,8.355
		c0.199,0.198,0.311,0.469,0.311,0.75s-0.111,0.551-0.311,0.749l-8.357,8.354C20.716,31.715,20.446,31.822,20.171,31.822 M22.612,37
		c-0.26,0-0.521-0.006-0.78-0.021c-2.803-0.144-5.482-1.078-7.741-2.699c-0.476-0.341-0.584-1.005-0.245-1.48
		c0.34-0.475,1.005-0.585,1.482-0.243c1.927,1.387,4.215,2.183,6.613,2.307c3.338,0.176,6.527-0.957,9.001-3.185
		c2.478-2.229,3.935-5.292,4.108-8.621c0.174-3.326-0.957-6.522-3.188-8.995c-2.229-2.476-5.286-3.934-8.613-4.107
		c-6.895-0.368-12.751,4.935-13.112,11.805c-0.149,2.827,0.636,5.537,2.256,7.837c0.338,0.479,0.223,1.142-0.255,1.479
		c-0.477,0.336-1.138,0.222-1.477-0.255c-1.899-2.692-2.812-5.864-2.642-9.172C8.442,13.612,15.3,7.427,23.361,7.835
		c3.893,0.203,7.47,1.91,10.079,4.807c2.606,2.896,3.932,6.636,3.729,10.525c-0.203,3.897-1.912,7.479-4.81,10.086
		C29.66,35.683,26.223,37,22.612,37"/>
</g>
</svg>
