<?xml version="1.0" encoding="utf-8"?>
<!-- Generator: Adobe Illustrator 16.0.0, SVG Export Plug-In . SVG Version: 6.00 Build 0)  -->
<!DOCTYPE svg PUBLIC "-//W3C//DTD SVG 1.1//EN" "http://www.w3.org/Graphics/SVG/1.1/DTD/svg11.dtd">
<svg version="1.1" id="Capa_1" xmlns="http://www.w3.org/2000/svg" xmlns:xlink="http://www.w3.org/1999/xlink" x="0px" y="0px"
	 width="29.191px" height="29.184px" viewBox="7.999 7.816 29.191 29.184" enable-background="new 7.999 7.816 29.191 29.184"
	 xml:space="preserve">
<g>
	<path fill="#FFFFFF" d="M21.229,16.615v11.589l5.799-5.794L21.229,16.615z M20.171,31.823c-0.139,0-0.276-0.025-0.408-0.079
		c-0.395-0.165-0.655-0.552-0.655-0.98V14.055c0-0.429,0.261-0.813,0.655-0.979c0.396-0.167,0.854-0.074,1.155,0.229l8.356,8.355
		c0.199,0.197,0.312,0.469,0.312,0.75c0,0.28-0.111,0.551-0.312,0.749l-8.356,8.354C20.716,31.715,20.446,31.823,20.171,31.823
		 M22.612,37c-0.26,0-0.521-0.006-0.779-0.021c-2.804-0.144-5.482-1.078-7.741-2.698c-0.476-0.342-0.584-1.006-0.245-1.48
		c0.34-0.475,1.005-0.585,1.482-0.243c1.927,1.387,4.215,2.184,6.612,2.308c3.338,0.176,6.527-0.957,9.001-3.186
		c2.479-2.229,3.936-5.292,4.108-8.621c0.174-3.326-0.957-6.521-3.188-8.995c-2.229-2.476-5.285-3.934-8.612-4.106
		c-6.896-0.368-12.751,4.935-13.112,11.805c-0.149,2.827,0.636,5.537,2.256,7.837c0.338,0.479,0.224,1.143-0.255,1.479
		c-0.477,0.336-1.138,0.222-1.477-0.255c-1.899-2.692-2.812-5.864-2.643-9.173C8.442,13.612,15.3,7.427,23.361,7.835
		c3.894,0.203,7.471,1.91,10.079,4.807c2.606,2.896,3.933,6.636,3.729,10.525c-0.203,3.896-1.912,7.479-4.811,10.086
		C29.66,35.683,26.223,37,22.612,37"/>
</g>
</svg>
