<?xml version="1.0" encoding="utf-8"?>
<!-- Generator: Adobe Illustrator 15.1.0, SVG Export Plug-In . SVG Version: 6.00 Build 0)  -->
<!DOCTYPE svg PUBLIC "-//W3C//DTD SVG 1.1//EN" "http://www.w3.org/Graphics/SVG/1.1/DTD/svg11.dtd">
<svg version="1.1" id="Capa_1" xmlns="http://www.w3.org/2000/svg" xmlns:xlink="http://www.w3.org/1999/xlink" x="0px" y="0px"
	 width="44px" height="44px" viewBox="0 0 44 44" enable-background="new 0 0 44 44" xml:space="preserve">
<g>
	<g>
		<path fill="#FFFFFF" d="M20.283,16.829L20.283,16.829l0.002-3.179l-0.002-0.14c-0.002-0.017-0.002-0.036-0.004-0.052
			c-0.013-0.446-0.187-0.906-0.537-1.257c-0.358-0.356-0.832-0.538-1.304-0.537c-0.467-0.001-0.944,0.181-1.302,0.542l0.012-0.012
			l-7.179,7.176l-0.013,0.011c-0.625,0.621-0.93,1.419-0.93,2.207c0,0.789,0.305,1.586,0.909,2.188l0.026,0.026l7.152,7.152
			l0.037,0.035c0.346,0.35,0.824,0.531,1.291,0.529c0.002,0,0.006,0.001,0.008,0.001c0.463,0,0.937-0.182,1.293-0.533
			c0.346-0.355,0.53-0.808,0.539-1.269h0.002c0-0.002,0-0.021,0-0.053l0.002-0.12l-0.002-3.276l-0.015-0.724
			c0.002-0.022,0.013-0.041,0.013-0.063c0-0.027-0.013-0.05-0.015-0.075l-0.001-0.059c-0.003,0-0.009-0.002-0.011-0.003
			c-0.067-0.354-0.364-0.631-0.74-0.631c-0.424,0-0.767,0.344-0.767,0.768c0,0.004,0.002,0.008,0.002,0.012
			s-0.002,0.008-0.002,0.012l0.005,4.028l-0.003,0.097V29.63v0.023v0.013v0.021c0,0.072-0.027,0.15-0.096,0.219
			c-0.055,0.052-0.129,0.082-0.213,0.082c-0.082,0-0.156-0.03-0.214-0.088l-0.04-0.036l-7.136-7.138l-0.026-0.028
			c-0.316-0.312-0.466-0.708-0.466-1.108s0.149-0.796,0.456-1.099l0.012-0.012l7.162-7.159c0.098-0.092,0.168-0.121,0.247-0.124
			c0.082,0.003,0.156,0.027,0.224,0.096c0.057,0.056,0.084,0.125,0.084,0.216v0.006c0,0.02,0,0.043,0.002,0.069l0.002,0.077v4.001
			c0,0.204,0.08,0.403,0.225,0.544c0.143,0.142,0.339,0.223,0.543,0.223h0.614c0.051,0.012,0.098,0.031,0.151,0.031
			c7.204,0,13.063,5.859,13.063,13.062c0,0.449,0.365,0.814,0.814,0.814s0.812-0.365,0.812-0.814
			C34.973,23.419,28.383,16.829,20.283,16.829"/>
	</g>
</g>
</svg>
